# xmcd
#
# Track frame offsets:
#	150
#	17178
#	27861
#	38518
#	50856
#	61754
#	75286
#	85952
#	98791
#	113926
#	125049
#	135906
#	146003
#	156527
#	169639
#
# Disc length: 2422 seconds
#
# Revision: 1
# Processed by: cddbd v1.4PL0 Copyright (c) Steve Scherf et al.
# Submitted via: audiograbber 1.82.02
#
DISCID=c109740f
DTITLE=Various Artist - Classic Country 1960-1962 Disc 2
DYEAR=1900
DGENRE=Country
TTITLE0=Johnny Ashcroft - Little Boy Lost
TTITLE1=Leroy Van Dyke - Walk On By
TTITLE2=Don Gibson - Lonesome No.1
TTITLE3=Patsy Cline - Crazy
TTITLE4=Marty Robbins - El Paso
TTITLE5=Jimmy Dean - Big Bad John
TTITLE6=Floyd Kramer - San Antonio Rose
TTITLE7=Johnny Horton - North To Alaska
TTITLE8=Jim Reeves - The Blizzard
TTITLE9=Roy Orbison - Only The Lonely
TTITLE10=Faron Young - Hello Walls
TTITLE11=Willie Nelson - Touch Me
TTITLE12=The Everly Brothers - Bye Bye Love
TTITLE13=Johnny Tillotson - Send Me The Pillow That You Dream On
TTITLE14=Buster Noble - The Pommy Jackeroo
EXTD=
EXTT0=
EXTT1=
EXTT2=
EXTT3=
EXTT4=
EXTT5=
EXTT6=
EXTT7=
EXTT8=
EXTT9=
EXTT10=
EXTT11=
EXTT12=
EXTT13=
EXTT14=
PLAYORDER=
